<?xml version="1.0" encoding="UTF-8"?>
<!DOCTYPE svg PUBLIC "-//W3C//DTD SVG 1.1//EN" "http://www.w3.org/Graphics/SVG/1.1/DTD/svg11.dtd">
<!-- Creator: CorelDRAW X7 -->
<svg xmlns="http://www.w3.org/2000/svg" xml:space="preserve" width="6.14929in" height="5.6798in" version="1.1" style="shape-rendering:geometricPrecision; text-rendering:geometricPrecision; image-rendering:optimizeQuality; fill-rule:evenodd; clip-rule:evenodd"
viewBox="0 0 6149 5680"
 xmlns:xlink="http://www.w3.org/1999/xlink">
 <defs>
  <style type="text/css">
   <![CDATA[
    .str0 {stroke:#FEFEFE;stroke-width:6.94488}
    .fil1 {fill:#0093DD}
    .fil2 {fill:#1F293A}
    .fil3 {fill:white}
    .fil0 {fill:#DADBDC;fill-rule:nonzero}
   ]]>
  </style>
 </defs>
 <g id="Layer_x0020_1">
  <metadata id="CorelCorpID_0Corel-Layer"/>
  <g id="_444319192">
   <path class="fil0" d="M3035 24l-122 141 -308 329c-59,66 -129,163 -150,249 -62,256 219,384 380,500 115,84 137,162 151,296 -18,-29 -39,-53 -65,-75l-239 -176c-5,-4 -118,-107 -131,-130l-42 -96c-6,-14 -21,-20 -35,-14 -8,4 -14,12 -15,21l-6 55 -2 200 5 261 -2 249c5,174 26,321 179,428l204 126c47,34 102,80 122,138 16,42 15,100 16,148 -85,-106 -178,-151 -277,-228 -42,-33 -94,-77 -129,-119 -37,-43 -37,-74 -59,-120l-13 -24c-7,-13 -23,-18 -36,-11 -8,5 -13,13 -14,22l-7 113 5 407 -4 255c1,84 5,173 27,255l54 160c77,181 221,304 415,335 35,6 167,8 178,6 75,-8 136,-24 203,-58 184,-92 301,-284 333,-482l15 -159 6 -662c0,-30 -6,-161 -9,-182 -2,-15 -15,-25 -30,-22 -9,1 -16,6 -20,14l-71 140c-21,34 -63,74 -95,99l-204 140c-33,25 -99,80 -116,124 7,-96 13,-170 93,-235l241 -169c175,-139 215,-226 218,-446l-7 -165 6 -434c-1,-29 -6,-172 -9,-192 -3,-14 -16,-24 -31,-22 -9,2 -18,8 -21,18l-27 83c-3,10 -25,47 -36,62 -98,121 -189,149 -309,236 -57,41 -69,54 -105,105 13,-107 21,-147 101,-221l119 -98 163 -151c86,-88 163,-197 130,-326 -16,-65 -55,-120 -99,-169l-238 -241c-54,-58 -116,-129 -161,-194l-63 -101c-5,-6 -6,-6 -12,-11 -19,-15 -36,1 -45,18z"/>
   <path class="fil0" d="M1525 4241c-146,-171 -226,-290 -264,-365l-73 -169c-83,-166 -166,-188 -345,-208l-264 -22c-105,-14 -269,-67 -359,-132l-76 -64c-60,-46 -105,-30 -143,30 -8,12 52,249 58,272l60 187 54 115 32 50c57,77 108,132 200,156l120 27c78,20 99,99 137,160 42,69 223,303 277,363 57,65 168,185 243,253l187 159c165,129 433,293 625,379l227 90c305,107 670,168 993,157 780,-27 1490,-398 1989,-991l142 -182c38,-54 117,-173 154,-240l46 -85c20,-33 43,-53 80,-65l124 -34c91,-33 166,-100 217,-180l59 -108c35,-73 110,-299 121,-401 4,-31 7,-79 -10,-108 -26,-46 -75,-27 -108,-5l-106 79 -30 18 -220 87c-54,18 -139,36 -197,36l-212 -14c-235,0 -317,274 -405,436 -49,87 -125,190 -190,265 -48,56 -112,123 -166,172l-173 150c-410,329 -975,479 -1494,416 -235,-29 -500,-113 -714,-225 -243,-127 -410,-267 -596,-459z"/>
   <path class="fil0" d="M3881 1633l-3 189c3,80 21,154 67,221l110 145 60 89 74 139c37,80 77,213 90,300l16 164c8,196 -60,418 -159,589 -152,262 -420,496 -715,581 -364,105 -809,13 -1109,-216 -69,-53 -169,-154 -222,-223 -7,-10 -90,-136 -113,-182 -79,-161 -124,-379 -122,-557 4,-246 93,-511 242,-708l110 -133c34,-47 59,-105 65,-164l6 -110 -7 -659c0,-28 -31,-27 -51,-22 -49,11 -148,76 -182,101l-204 166c-303,263 -553,602 -664,992 -38,136 -63,304 -68,445 -7,248 51,632 151,865l69 137 97 150 188 238c242,279 597,513 957,612l166 37c719,126 1460,-187 1903,-759 402,-518 518,-1193 302,-1814l-68 -168 -85 -166c-48,-83 -113,-177 -172,-252 -140,-174 -397,-413 -579,-533 -20,-12 -95,-52 -109,-58 -39,-14 -41,45 -42,64 -8,92 -2,363 1,500z"/>
   <polygon class="fil1" points="3058,40 3058,3022 3057,3022 3057,3501 3058,3501 3058,3702 3085,3702 3112,3699 3137,3696 3164,3692 3189,3686 3214,3681 3238,3673 3261,3664 3284,3655 3307,3644 3328,3633 3350,3620 3370,3607 3391,3592 3410,3577 3429,3562 3446,3545 3464,3527 3480,3509 3496,3490 3511,3470 3524,3449 3539,3428 3551,3406 3563,3384 3574,3361 3584,3338 3593,3313 3602,3289 3609,3264 3616,3238 3622,3212 3627,3181 3631,3150 3635,3119 3638,3089 3641,3026 3644,2962 3644,2899 3642,2835 3642,2772 3641,2708 3642,2654 3644,2589 3646,2516 3647,2440 3648,2365 3647,2295 3646,2264 3645,2234 3642,2209 3639,2186 3624,2221 3608,2252 3594,2279 3580,2305 3566,2328 3551,2348 3537,2367 3520,2385 3504,2402 3485,2417 3465,2434 3443,2450 3393,2484 3333,2525 3311,2539 3287,2556 3262,2574 3237,2593 3212,2613 3190,2634 3180,2645 3172,2655 3164,2666 3157,2677 3150,2695 3143,2714 3137,2732 3133,2752 3130,2773 3126,2793 3125,2814 3123,2834 3121,2872 3118,2906 3115,2919 3113,2931 3111,2941 3107,2949 3100,2802 3101,2741 3101,2711 3102,2684 3103,2657 3106,2632 3108,2608 3111,2585 3115,2564 3122,2543 3129,2523 3137,2504 3147,2487 3160,2469 3173,2452 3188,2437 3206,2421 3226,2406 3275,2373 3325,2339 3375,2306 3422,2272 3446,2253 3468,2234 3491,2215 3513,2194 3534,2173 3554,2151 3574,2128 3593,2103 3601,2091 3608,2079 3615,2064 3622,2051 3627,2037 3631,2022 3636,2008 3639,1993 3646,1962 3650,1929 3652,1896 3653,1862 3655,1828 3653,1795 3652,1761 3651,1727 3648,1662 3647,1601 3648,1545 3649,1474 3651,1395 3652,1311 3653,1229 3652,1151 3651,1117 3650,1087 3648,1061 3645,1040 3635,1069 3627,1096 3623,1109 3617,1125 3610,1140 3602,1157 3590,1176 3576,1193 3562,1210 3548,1226 3532,1243 3517,1257 3500,1273 3484,1286 3448,1313 3412,1338 3376,1362 3338,1385 3297,1410 3263,1434 3248,1445 3233,1456 3221,1467 3209,1477 3199,1487 3189,1498 3182,1507 3174,1517 3167,1527 3161,1537 3156,1548 3152,1559 3147,1570 3144,1581 3141,1593 3139,1606 3134,1632 3132,1661 3125,1729 3117,1813 3113,1807 3111,1802 3109,1794 3107,1786 3104,1769 3102,1748 3101,1726 3101,1703 3101,1678 3102,1653 3107,1602 3111,1555 3115,1514 3119,1482 3121,1462 3124,1444 3129,1426 3133,1409 3139,1394 3145,1380 3152,1365 3161,1352 3168,1339 3178,1326 3189,1313 3200,1301 3212,1289 3226,1277 3240,1265 3255,1253 3296,1220 3345,1179 3399,1131 3453,1082 3479,1055 3506,1030 3529,1004 3552,978 3572,954 3590,930 3597,919 3604,908 3609,897 3614,887 3622,867 3628,849 3633,830 3635,813 3637,795 3637,779 3636,762 3634,746 3630,730 3626,715 3620,699 3614,684 3607,668 3599,654 3591,640 3581,627 3560,599 3538,571 3513,546 3488,521 3437,472 3389,424 3368,403 3346,380 3322,355 3298,330 3275,306 3253,280 3232,256 3214,234 3194,209 3174,183 3155,158 3135,133 3120,108 3100,74 3089,56 3079,42 3071,31 3066,27 "/>
   <polygon class="fil2" points="1842,4361 1875,4388 1909,4416 1943,4442 1978,4468 2012,4492 2047,4516 2082,4538 2118,4560 2154,4581 2190,4602 2227,4621 2264,4640 2302,4657 2339,4674 2378,4691 2415,4705 2454,4719 2494,4732 2533,4745 2573,4757 2613,4767 2652,4777 2693,4785 2735,4793 2776,4800 2818,4805 2860,4811 2902,4814 2945,4817 2988,4820 3031,4821 3075,4821 3156,4818 3238,4813 3319,4803 3400,4790 3479,4773 3558,4753 3635,4730 3712,4704 3787,4674 3861,4642 3934,4607 4005,4568 4075,4527 4143,4483 4209,4437 4273,4387 4335,4337 4396,4283 4454,4226 4509,4168 4563,4107 4614,4044 4662,3979 4708,3912 4751,3844 4791,3773 4828,3702 4862,3628 4893,3553 4920,3476 4945,3397 4966,3318 4975,3274 4985,3229 4993,3183 5000,3138 5005,3093 5010,3049 5014,3004 5016,2958 5017,2914 5018,2869 5017,2824 5015,2780 5013,2736 5009,2691 5004,2646 4998,2602 4991,2558 4982,2515 4973,2471 4963,2428 4952,2385 4940,2342 4927,2299 4913,2256 4897,2214 4881,2172 4863,2130 4845,2090 4826,2048 4806,2007 4784,1967 4762,1926 4742,1893 4722,1861 4702,1829 4681,1799 4659,1768 4637,1737 4615,1707 4592,1677 4568,1649 4543,1620 4519,1591 4494,1564 4442,1509 4388,1455 4347,1416 4292,1366 4228,1311 4157,1253 4121,1225 4086,1198 4052,1173 4020,1150 3989,1130 3960,1114 3948,1107 3936,1102 3925,1097 3915,1094 3911,1112 3908,1135 3906,1163 3905,1195 3904,1270 3904,1353 3905,1437 3907,1515 3908,1584 3909,1633 3908,1703 3906,1764 3906,1792 3906,1819 3907,1846 3910,1872 3914,1898 3920,1923 3928,1948 3939,1974 3945,1987 3952,1999 3960,2014 3968,2027 3988,2054 4010,2084 4046,2128 4079,2172 4110,2218 4140,2264 4167,2310 4192,2358 4204,2381 4215,2405 4226,2429 4236,2453 4246,2479 4254,2503 4263,2528 4271,2554 4279,2579 4285,2606 4292,2631 4297,2657 4303,2684 4307,2711 4312,2738 4315,2765 4318,2793 4321,2822 4323,2850 4324,2879 4324,2931 4322,2983 4316,3035 4308,3086 4297,3137 4285,3188 4270,3238 4252,3289 4232,3339 4210,3387 4186,3435 4161,3482 4132,3528 4102,3574 4070,3618 4037,3660 4002,3702 3966,3741 3927,3780 3887,3816 3846,3852 3805,3885 3762,3917 3716,3945 3671,3973 3625,3998 3577,4021 3529,4041 3480,4060 3431,4075 3380,4089 3329,4098 3274,4107 3219,4114 3164,4117 3109,4118 3054,4118 3000,4115 2945,4111 2891,4103 2836,4093 2784,4082 2732,4069 2679,4052 2628,4035 2579,4015 2529,3993 2480,3969 2433,3943 2387,3915 2343,3886 2298,3855 2257,3821 2217,3785 2177,3749 2141,3709 2104,3668 2071,3627 2039,3582 2010,3536 1982,3489 1956,3440 1932,3388 1911,3337 1902,3308 1892,3279 1883,3251 1875,3222 1867,3193 1861,3164 1855,3135 1850,3106 1844,3076 1841,3048 1838,3018 1835,2988 1833,2960 1832,2930 1831,2900 1831,2871 1832,2842 1834,2812 1836,2783 1839,2753 1843,2724 1848,2695 1852,2666 1857,2636 1864,2608 1872,2579 1879,2550 1887,2522 1897,2493 1907,2464 1917,2437 1928,2408 1938,2385 1949,2362 1959,2340 1971,2318 1995,2274 2021,2231 2048,2189 2078,2148 2110,2109 2143,2072 2166,2043 2187,2017 2196,2004 2204,1990 2211,1978 2218,1965 2223,1953 2229,1941 2233,1928 2237,1915 2243,1890 2248,1866 2251,1839 2252,1813 2253,1786 2253,1758 2251,1696 2250,1629 2250,1366 2247,1098 2239,1100 2227,1102 2215,1106 2200,1112 2186,1117 2156,1133 2124,1151 2091,1173 2057,1198 2022,1223 1988,1251 1952,1278 1919,1307 1886,1334 1854,1362 1799,1413 1754,1453 1727,1479 1700,1505 1674,1533 1648,1560 1623,1588 1598,1617 1573,1645 1550,1675 1526,1705 1502,1736 1480,1767 1458,1797 1437,1828 1416,1860 1397,1891 1378,1923 1355,1964 1333,2005 1312,2046 1292,2086 1273,2128 1257,2170 1240,2212 1226,2255 1211,2298 1198,2341 1187,2384 1176,2427 1167,2470 1158,2514 1152,2558 1145,2602 1141,2646 1136,2691 1133,2735 1131,2780 1131,2824 1131,2869 1132,2914 1134,2960 1136,3004 1141,3049 1146,3094 1152,3139 1158,3184 1167,3231 1176,3276 1185,3321 1196,3367 1207,3410 1218,3452 1229,3491 1240,3528 1252,3565 1265,3599 1279,3633 1294,3667 1311,3700 1327,3734 1347,3768 1368,3803 1390,3838 1415,3876 1442,3915 1486,3976 1532,4036 1555,4065 1580,4094 1604,4123 1628,4151 1653,4179 1679,4205 1704,4233 1731,4259 1758,4285 1786,4311 1813,4337 "/>
   <polygon class="fil2" points="1508,4258 1473,4218 1436,4175 1400,4128 1363,4081 1328,4031 1295,3983 1280,3958 1265,3934 1252,3911 1240,3888 1227,3859 1215,3832 1203,3803 1190,3775 1179,3748 1167,3720 1154,3695 1140,3670 1133,3659 1125,3646 1117,3635 1108,3624 1099,3614 1089,3605 1078,3596 1067,3587 1056,3579 1043,3571 1029,3564 1016,3558 1001,3552 985,3547 969,3543 950,3539 914,3534 877,3528 843,3525 809,3523 743,3519 677,3514 645,3511 612,3508 577,3503 543,3498 508,3490 472,3481 434,3470 394,3457 369,3448 341,3437 314,3425 285,3412 258,3397 231,3382 207,3366 185,3350 162,3330 141,3311 131,3302 122,3296 112,3289 103,3285 93,3281 85,3280 80,3280 75,3281 70,3283 66,3285 56,3290 46,3299 35,3310 25,3326 40,3386 56,3449 71,3512 87,3575 104,3638 124,3699 134,3729 145,3759 157,3789 171,3817 184,3844 197,3870 212,3895 228,3919 244,3942 263,3964 282,3986 303,4007 317,4019 330,4029 344,4038 358,4046 371,4052 386,4057 400,4061 413,4065 442,4071 472,4076 502,4083 534,4092 552,4097 567,4104 581,4112 593,4121 604,4129 613,4138 621,4149 629,4159 644,4182 657,4208 670,4234 685,4263 699,4284 714,4307 731,4331 749,4355 767,4380 785,4404 802,4426 818,4447 852,4492 887,4536 924,4579 960,4623 997,4665 1036,4707 1075,4748 1114,4789 1157,4832 1201,4874 1247,4914 1293,4954 1339,4993 1387,5031 1434,5068 1484,5104 1533,5139 1583,5172 1634,5205 1685,5237 1737,5268 1790,5298 1843,5327 1897,5354 1952,5382 2006,5407 2063,5431 2118,5454 2175,5476 2231,5497 2289,5516 2347,5534 2404,5552 2463,5567 2522,5581 2582,5596 2641,5607 2701,5618 2760,5628 2821,5635 2886,5642 2952,5648 3017,5651 3083,5653 3149,5653 3215,5652 3280,5649 3345,5644 3410,5638 3475,5630 3539,5620 3604,5609 3668,5597 3731,5583 3795,5566 3857,5548 3919,5530 3981,5509 4043,5487 4103,5463 4164,5438 4224,5412 4282,5384 4340,5354 4399,5323 4455,5291 4511,5257 4566,5223 4620,5186 4674,5148 4727,5108 4779,5069 4821,5033 4863,4997 4906,4960 4947,4921 4989,4881 5029,4842 5069,4800 5109,4758 5147,4715 5185,4671 5221,4627 5258,4581 5292,4536 5325,4491 5357,4446 5387,4399 5404,4373 5421,4348 5436,4325 5451,4301 5464,4278 5478,4254 5493,4227 5507,4198 5516,4181 5525,4167 5533,4154 5542,4141 5552,4132 5562,4122 5572,4114 5583,4107 5594,4101 5606,4095 5618,4091 5631,4086 5662,4079 5695,4070 5711,4067 5726,4062 5741,4058 5755,4052 5768,4047 5781,4040 5795,4033 5807,4027 5831,4011 5853,3994 5874,3976 5894,3955 5912,3934 5929,3912 5946,3888 5961,3864 5975,3838 5990,3812 6003,3784 6015,3757 6029,3720 6052,3661 6063,3624 6075,3586 6087,3546 6098,3506 6108,3466 6115,3427 6119,3409 6122,3392 6123,3374 6124,3359 6124,3344 6124,3331 6123,3319 6120,3308 6117,3299 6112,3293 6106,3287 6099,3284 6095,3284 6091,3284 6086,3284 6081,3285 6070,3289 6059,3295 6046,3301 6034,3310 6021,3320 6006,3330 5979,3351 5952,3372 5939,3381 5927,3388 5916,3395 5906,3401 5881,3412 5853,3424 5824,3436 5796,3447 5766,3459 5736,3470 5709,3480 5682,3489 5646,3500 5612,3509 5577,3516 5544,3522 5511,3525 5477,3526 5441,3525 5403,3523 5369,3520 5335,3516 5300,3513 5267,3512 5249,3513 5232,3514 5216,3516 5199,3520 5183,3524 5167,3531 5151,3537 5135,3546 5124,3554 5114,3562 5104,3570 5093,3579 5075,3599 5056,3621 5038,3645 5021,3670 5005,3696 4989,3724 4960,3779 4932,3834 4907,3886 4883,3934 4871,3955 4857,3977 4844,4000 4830,4022 4798,4068 4765,4113 4728,4159 4690,4204 4649,4248 4608,4294 4565,4337 4522,4379 4478,4419 4434,4458 4390,4495 4347,4530 4305,4563 4264,4591 4212,4627 4161,4660 4107,4692 4053,4721 3997,4750 3941,4777 3884,4802 3825,4825 3767,4847 3709,4867 3649,4886 3588,4902 3528,4917 3467,4930 3407,4940 3345,4950 3281,4956 3217,4962 3153,4965 3089,4966 3025,4965 2961,4962 2898,4957 2834,4951 2771,4942 2709,4931 2647,4918 2585,4903 2523,4887 2463,4869 2402,4849 2343,4827 2284,4804 2226,4779 2168,4752 2111,4724 2055,4693 2000,4661 1946,4628 1893,4592 1841,4556 1790,4519 1739,4479 1691,4437 1644,4395 1597,4351 1552,4305 "/>
   <polygon class="fil2" points="3014,1775 3015,1788 3004,1807 3003,1775 3003,1731 3001,1693 2997,1659 2992,1628 2990,1614 2985,1601 2982,1589 2978,1577 2972,1566 2968,1556 2961,1546 2956,1536 2949,1527 2941,1518 2934,1510 2925,1502 2907,1485 2886,1469 2836,1432 2777,1391 2756,1375 2734,1360 2712,1343 2690,1327 2668,1309 2646,1291 2626,1274 2606,1256 2577,1226 2556,1204 2541,1187 2530,1171 2522,1154 2512,1134 2502,1107 2487,1072 2484,1097 2481,1124 2480,1154 2479,1186 2479,1253 2479,1323 2481,1395 2483,1463 2485,1528 2485,1585 2484,1643 2483,1705 2481,1768 2483,1833 2483,1865 2485,1897 2487,1928 2490,1958 2495,1988 2500,2018 2507,2046 2516,2072 2524,2096 2535,2118 2549,2139 2562,2158 2577,2177 2594,2193 2612,2210 2630,2225 2649,2240 2669,2253 2689,2266 2710,2279 2752,2304 2793,2329 2813,2341 2834,2353 2854,2366 2873,2380 2891,2394 2908,2408 2925,2424 2940,2440 2953,2457 2965,2476 2977,2495 2986,2516 2993,2538 2999,2563 3002,2588 3003,2616 3004,2741 3002,2770 2990,2745 2977,2721 2963,2699 2949,2681 2934,2662 2918,2645 2902,2629 2885,2614 2849,2586 2810,2558 2768,2528 2724,2496 2684,2467 2648,2437 2612,2406 2576,2372 2563,2358 2551,2344 2542,2332 2534,2321 2527,2310 2521,2300 2517,2290 2512,2280 2506,2262 2498,2242 2494,2231 2489,2220 2484,2209 2476,2195 2474,2219 2472,2246 2469,2275 2468,2307 2468,2375 2468,2449 2470,2523 2472,2593 2474,2659 2474,2714 2474,2777 2472,2839 2470,2903 2469,2967 2469,2999 2470,3031 2473,3062 2475,3094 2478,3125 2483,3156 2489,3186 2496,3216 2504,3244 2511,3270 2520,3297 2529,3323 2538,3348 2548,3372 2559,3396 2570,3418 2582,3440 2594,3461 2607,3482 2621,3501 2636,3520 2650,3538 2667,3555 2683,3571 2700,3586 2719,3600 2737,3614 2756,3627 2777,3639 2798,3649 2820,3659 2843,3667 2866,3675 2891,3682 2917,3688 2942,3693 2970,3697 2999,3699 3027,3702 3058,3702 3058,3461 3058,3341 3058,3156 3058,3087 3058,40 3037,61 3017,83 2997,107 2977,133 2956,158 2935,182 2914,206 2893,230 2871,253 2850,275 2829,298 2807,321 2786,344 2765,367 2743,391 2721,413 2674,460 2627,511 2603,537 2581,565 2560,593 2540,622 2530,638 2521,652 2513,667 2506,683 2499,698 2494,714 2488,730 2484,747 2480,762 2478,779 2476,795 2476,813 2476,829 2478,846 2480,864 2485,881 2489,894 2494,908 2499,921 2507,933 2515,946 2522,958 2532,971 2542,984 2563,1007 2587,1031 2613,1053 2639,1075 2667,1096 2695,1117 2724,1137 2752,1156 2806,1191 2853,1222 2871,1235 2887,1248 2903,1262 2916,1276 2929,1290 2941,1305 2951,1320 2961,1335 2970,1351 2978,1367 2984,1384 2990,1401 2995,1418 3000,1435 3004,1452 3007,1470 3012,1506 3015,1544 3016,1581 3016,1619 3015,1697 "/>
   <polygon class="fil3" points="2762,3149 2779,3150 2798,3149 2817,3147 2835,3143 2874,3132 2911,3122 2931,3117 2950,3115 2959,3114 2969,3114 2978,3115 2988,3116 2996,3117 3005,3119 3014,3123 3023,3127 3032,3132 3040,3138 3048,3145 3057,3152 3060,3149 3065,3147 3072,3141 3081,3136 3090,3132 3100,3128 3109,3126 3118,3124 3128,3122 3136,3121 3155,3121 3175,3122 3195,3124 3214,3127 3253,3135 3292,3143 3311,3146 3329,3148 3347,3149 3366,3147 3461,3320 3434,3322 3409,3323 3382,3321 3357,3319 3307,3311 3259,3304 3235,3300 3210,3298 3186,3297 3162,3298 3150,3299 3137,3301 3125,3304 3113,3307 3101,3311 3089,3317 3077,3322 3065,3329 3059,3331 3056,3331 3053,3329 3047,3327 3035,3320 3023,3315 3011,3310 2999,3306 2986,3302 2973,3300 2961,3299 2948,3297 2921,3296 2895,3297 2868,3299 2842,3302 2788,3310 2734,3318 2706,3320 2680,3321 2653,3321 2627,3318 "/>
   <polygon class="fil3" points="2638,3333 2656,3333 2673,3333 2692,3332 2711,3331 2750,3327 2791,3321 2828,3316 2863,3311 2898,3308 2931,3307 2947,3308 2962,3309 2977,3311 2990,3315 3003,3319 3015,3324 3026,3331 3036,3339 3031,3344 3022,3337 3011,3330 3000,3324 2988,3321 2974,3318 2960,3316 2945,3315 2929,3313 2897,3315 2863,3318 2828,3322 2792,3328 2752,3333 2712,3338 2692,3339 2673,3340 2656,3340 2638,3340 "/>
   <polygon class="fil3" points="2650,3353 2667,3354 2684,3353 2702,3352 2721,3351 2757,3347 2795,3341 2828,3336 2860,3332 2891,3329 2920,3329 2934,3329 2948,3331 2961,3333 2973,3337 2985,3341 2996,3347 3006,3353 3016,3361 3012,3365 3002,3358 2992,3352 2982,3347 2970,3342 2958,3339 2946,3337 2932,3336 2918,3336 2889,3336 2859,3339 2828,3343 2796,3348 2758,3353 2721,3358 2702,3359 2684,3360 2667,3361 2649,3360 "/>
   <polygon class="fil3" points="2659,3372 2676,3373 2693,3373 2711,3372 2728,3370 2764,3365 2800,3360 2830,3354 2859,3350 2887,3348 2914,3347 2927,3348 2939,3349 2951,3352 2963,3354 2974,3359 2984,3364 2994,3371 3004,3379 3000,3384 2991,3376 2981,3370 2971,3365 2960,3361 2949,3358 2937,3355 2925,3354 2913,3353 2886,3354 2859,3358 2830,3361 2800,3366 2765,3372 2728,3376 2711,3379 2693,3380 2676,3380 2658,3379 "/>
   <polygon class="fil3" points="2660,3388 2677,3390 2694,3390 2712,3388 2730,3386 2764,3382 2799,3376 2829,3371 2857,3367 2885,3364 2913,3364 2925,3364 2937,3365 2949,3369 2961,3372 2972,3375 2982,3381 2992,3387 3002,3395 2996,3401 2988,3393 2979,3386 2969,3382 2958,3377 2947,3374 2935,3372 2922,3371 2910,3371 2885,3371 2857,3374 2829,3377 2800,3383 2765,3388 2730,3393 2712,3395 2694,3396 2677,3396 2659,3395 "/>
   <polygon class="fil3" points="3465,3333 3448,3333 3431,3333 3413,3332 3395,3331 3358,3327 3319,3321 3284,3316 3250,3311 3217,3308 3185,3307 3171,3308 3155,3309 3142,3311 3129,3315 3115,3319 3104,3324 3093,3331 3083,3339 3088,3344 3098,3337 3108,3330 3119,3324 3131,3321 3144,3318 3157,3316 3172,3315 3186,3313 3218,3315 3250,3318 3284,3322 3318,3328 3357,3333 3394,3338 3413,3339 3431,3340 3448,3340 3465,3340 "/>
   <polygon class="fil3" points="3453,3353 3437,3354 3420,3353 3403,3352 3386,3351 3350,3347 3315,3341 3284,3336 3253,3332 3223,3329 3195,3329 3182,3329 3168,3331 3156,3333 3144,3337 3132,3341 3122,3347 3111,3353 3102,3361 3107,3365 3115,3358 3125,3352 3135,3347 3146,3342 3158,3339 3171,3337 3184,3336 3197,3336 3225,3336 3253,3339 3283,3343 3314,3348 3349,3353 3384,3358 3402,3359 3420,3360 3437,3361 3454,3360 "/>
   <polygon class="fil3" points="3444,3372 3427,3373 3411,3373 3394,3372 3377,3370 3344,3365 3309,3360 3281,3354 3253,3350 3227,3348 3200,3347 3188,3348 3176,3349 3164,3352 3153,3354 3142,3359 3132,3364 3122,3371 3113,3379 3117,3384 3125,3376 3135,3370 3145,3365 3155,3361 3166,3358 3178,3355 3189,3354 3201,3353 3227,3354 3253,3358 3281,3361 3308,3366 3343,3372 3377,3376 3393,3379 3411,3380 3427,3380 3444,3379 "/>
   <polygon class="fil3" points="3442,3388 3426,3390 3410,3390 3393,3388 3376,3386 3343,3382 3309,3376 3281,3371 3253,3367 3227,3364 3201,3364 3189,3364 3177,3365 3166,3369 3155,3372 3144,3375 3134,3381 3124,3387 3114,3395 3119,3401 3128,3393 3137,3386 3147,3382 3157,3377 3168,3374 3179,3372 3190,3371 3203,3371 3228,3371 3253,3374 3281,3377 3308,3383 3341,3388 3376,3393 3392,3395 3409,3396 3426,3396 3443,3395 "/>
   <path class="fil3" d="M3058 3338l-1 1 -14 11 -11 12 -6 7 -3 5 -3 6 -4 6 -2 6 -1 5 0 7 0 5 1 6 1 5 2 6 3 7 18 0 18 0 18 0 18 0 2 -7 4 -6 1 -5 1 -6 0 -5 0 -7 -1 -5 -2 -6 -3 -6 -3 -6 -3 -5 -5 -7 -11 -12 -14 -11 0 -1zm-399 82l0 0 329 -1 -6 -5 -7 -6 -7 -4 -8 -5 -9 -3 -9 -3 -10 -2 -10 -3 -20 -2 -23 0 -23 1 -24 1 -48 7 -47 8 -43 6 -35 4 0 7zm781 0l0 0 -314 -1 6 -5 7 -6 7 -4 8 -5 8 -3 9 -3 8 -2 10 -3 20 -2 22 0 22 1 22 1 47 7 44 8 41 6 33 4 0 7z"/>
   <path class="fil3" d="M2856 3594l5 -6 4 -6 7 -5 6 -4 7 -6 7 -7 7 -5 7 -6 7 -6 5 -7 4 -6 4 -8 3 -8 0 -8 0 -7 -2 -8 -5 -7 -5 -5 -7 -5 -7 -3 -9 -2 -11 -1 -7 0 -6 1 -6 1 -5 2 -5 2 -4 4 -5 4 -3 5 -2 4 -2 5 -3 6 -1 7 19 2 1 -9 3 -7 5 -5 5 -5 8 -2 8 -1 8 1 6 2 6 4 4 5 2 6 1 6 0 5 -1 4 -1 5 -3 4 -7 8 -9 9 -11 10 -13 9 -8 7 -6 7 -7 6 -4 7 -5 5 -2 7 -2 6 0 5 99 0 0 -16 -74 0zm94 -53l0 0 0 16 2 14 2 7 3 7 2 5 3 5 3 4 4 3 4 4 4 2 5 2 4 1 6 1 7 0 5 0 6 -1 5 -1 5 -2 4 -2 4 -4 4 -3 3 -4 2 -5 3 -5 3 -7 1 -7 2 -14 1 -16 -1 -18 -2 -14 -1 -7 -3 -6 -3 -5 -2 -6 -3 -3 -4 -4 -4 -4 -4 -2 -5 -2 -5 -1 -6 -1 -5 0 -7 0 -6 1 -4 1 -4 2 -5 2 -4 4 -4 4 -3 3 -3 6 -2 5 -3 6 -2 7 -2 14 0 18zm19 0l0 0 0 -18 2 -15 2 -6 2 -6 3 -4 3 -3 3 -4 5 -2 4 -1 6 0 4 0 4 1 5 2 3 4 3 3 4 4 2 6 1 6 2 15 1 18 0 13 -2 12 -2 10 -2 8 -5 6 -5 5 -7 3 -6 0 -6 0 -4 -1 -5 -2 -3 -4 -3 -3 -3 -4 -2 -6 -2 -5 -2 -15 0 -17zm97 0l0 0 1 16 2 14 1 7 2 7 3 5 3 5 3 4 4 3 4 4 4 2 5 2 5 1 6 1 5 0 6 0 5 -1 6 -1 4 -2 5 -2 4 -4 3 -3 4 -4 3 -5 2 -5 2 -7 2 -7 3 -14 0 -16 0 -18 -3 -14 -2 -7 -2 -6 -2 -5 -3 -6 -4 -3 -3 -4 -4 -4 -5 -2 -4 -2 -6 -1 -5 -1 -6 0 -5 0 -6 1 -5 1 -5 2 -4 2 -4 4 -4 4 -3 3 -3 6 -3 5 -2 6 -1 7 -2 14 -1 18zm19 0l0 0 1 -18 2 -15 1 -6 2 -6 3 -4 3 -3 4 -4 3 -2 5 -1 5 0 6 0 4 1 4 2 4 4 2 3 3 4 3 6 1 6 3 15 0 18 0 13 -1 12 -2 10 -4 8 -4 6 -5 5 -6 3 -8 0 -5 0 -5 -1 -3 -2 -4 -4 -3 -3 -3 -4 -2 -6 -1 -5 -2 -15 -1 -17zm195 28l0 0 0 -9 -2 -6 -5 -7 -5 -5 -7 -5 -9 -4 5 -2 5 -3 3 -3 4 -3 2 -3 2 -5 1 -4 0 -6 -1 -6 -2 -8 -5 -7 -4 -5 -7 -5 -7 -3 -8 -1 -10 -1 -9 0 -7 2 -8 3 -7 5 -4 5 -5 7 -2 6 0 8 0 6 1 4 3 5 2 3 3 3 3 3 5 3 5 2 -9 3 -6 5 -6 5 -4 7 -2 7 -1 9 1 9 2 9 4 8 7 5 7 6 8 3 9 3 11 0 10 0 10 -3 8 -3 7 -6 6 -5 4 -8 4 -9 0 -9zm-73 -65l0 0 0 -6 3 -5 4 -4 4 -4 7 -2 6 -1 7 0 5 2 5 5 4 4 2 6 1 5 -1 7 -2 5 -3 5 -6 3 -5 2 -7 0 -6 0 -6 -2 -5 -3 -4 -6 -3 -5 0 -6zm-7 65l0 0 1 -5 2 -6 3 -4 3 -5 5 -3 5 -3 6 -1 6 -1 6 1 5 1 6 2 4 3 5 5 2 5 2 6 0 5 0 7 -2 5 -2 6 -5 3 -4 4 -5 3 -5 1 -6 0 -9 -1 -7 -2 -7 -5 -4 -5 -4 -8 -1 -8z"/>
   <polygon class="fil3 str0" points="4498,3482 4498,3482 4477,3532 4529,3552 4538,3556 4544,3560 4550,3565 4553,3570 4555,3575 4558,3580 4558,3586 4559,3591 4648,3559 4650,3573 4563,3602 4548,3607 4534,3609 4529,3610 4525,3610 4521,3609 4519,3608 4516,3605 4512,3601 4512,3597 4512,3592 4515,3589 4518,3587 4522,3584 4529,3581 4530,3580 4530,3578 4529,3576 4527,3573 4522,3570 4518,3568 4469,3549 4448,3599 4422,3599 4472,3481 "/>
   <polygon class="fil3 str0" points="4455,3586 4455,3586 4435,3624 4593,3697 4570,3707 4426,3641 4418,3657 4391,3655 4427,3584 "/>
   <polygon class="fil3 str0" points="4517,3685 4517,3685 4518,3692 4519,3698 4519,3706 4519,3713 4518,3720 4517,3727 4515,3732 4512,3738 4507,3747 4499,3752 4491,3758 4482,3762 4475,3763 4469,3764 4464,3766 4458,3766 4453,3764 4447,3763 4442,3761 4436,3759 4430,3754 4424,3750 4420,3743 4418,3736 4415,3728 4415,3720 4416,3713 4419,3705 4420,3700 4422,3696 4426,3689 4431,3684 4437,3680 4444,3674 4452,3671 4459,3667 4467,3665 4475,3665 4486,3670 4467,3680 4455,3687 4447,3695 4442,3703 4440,3708 4439,3714 4439,3720 4439,3727 4441,3732 4444,3738 4448,3742 4454,3746 4461,3749 4467,3751 4473,3751 4478,3751 4483,3750 4486,3748 4489,3745 4491,3741 4495,3735 4497,3728 4498,3719 4498,3710 4497,3702 4495,3692 4493,3682 4489,3672 "/>
   <polygon class="fil3 str0" points="4416,3656 4416,3656 4367,3745 4340,3742 4394,3645 "/>
   <path class="fil3 str0" d="M4378 3730l0 0 -28 38 7 0 5 -1 6 1 5 0 13 3 10 6 8 7 9 8 7 10 5 12 4 11 1 12 -1 11 -3 11 72 -3 2 13 -78 2 -6 7 -5 5 -3 3 -4 1 -4 1 -4 0 -6 -1 -7 -4 -5 -3 -3 -4 -2 -2 0 -3 0 -1 2 -2 4 -4 7 -4 8 -1 13 0 1 -1 1 -2 2 -3 1 -5 0 -5 0 -6 -2 -6 -1 -6 -4 -5 -3 -6 -11 10 -11 7 -12 5 -12 3 -8 0 -8 -1 -8 -3 -8 -3 -3 -4 -4 -2 -2 -3 -1 -3 -27 37 -25 -7 89 -125 27 5zm14 72l0 0 -6 -7 -9 -6 -7 -4 -5 -3 -7 -1 -5 -1 -7 0 -6 1 -5 3 -3 5 -3 3 -1 3 0 5 1 3 1 3 4 5 3 3 6 4 6 3 6 2 6 0 7 -1 7 -2 5 -4 4 -3 5 -6 2 -2 1 -3z"/>
   <polygon class="fil3 str0" points="4246,3872 4246,3872 4240,3878 4228,3878 4216,3878 4205,3878 4194,3879 4183,3881 4174,3883 4167,3886 4163,3890 4153,3906 4123,3901 4124,3899 4124,3897 4125,3891 4128,3887 4131,3883 4134,3881 4139,3878 4144,3876 4154,3874 4165,3872 4176,3872 4186,3871 4195,3871 4203,3871 4209,3871 4218,3871 4230,3872 "/>
   <polygon class="fil3 str0" points="4287,3857 4287,3857 4261,3891 4403,3989 4378,3996 4249,3907 4238,3921 4212,3914 4261,3850 "/>
   <polygon class="fil3 str0" points="4316,3943 4316,3943 4279,3987 4293,3998 4296,4001 4298,4005 4300,4007 4298,4009 4294,4011 4286,4014 4261,4012 4253,4011 4247,4009 4246,4007 4244,4006 4243,4004 4243,4001 4244,3997 4249,3992 4301,3931 "/>
   <polygon class="fil3 str0" points="4239,3917 4239,3917 4183,3982 4157,3974 4219,3901 "/>
   <polygon class="fil3 str0" points="4199,3965 4199,3965 4167,3995 4292,4113 4267,4115 4154,4008 4140,4021 4115,4010 4175,3954 "/>
   <polygon class="fil3 str0" points="4227,4078 4227,4078 4226,4084 4225,4091 4222,4097 4220,4104 4217,4111 4212,4116 4209,4122 4204,4126 4196,4132 4187,4136 4177,4138 4166,4139 4161,4139 4155,4138 4150,4137 4144,4135 4139,4133 4134,4129 4130,4126 4125,4123 4121,4116 4118,4110 4115,4102 4115,4094 4117,4086 4119,4079 4122,4072 4126,4065 4130,4062 4133,4059 4140,4053 4146,4050 4154,4047 4162,4044 4171,4043 4178,4042 4186,4043 4194,4044 4203,4053 4192,4054 4182,4057 4174,4059 4168,4061 4158,4065 4150,4071 4146,4075 4143,4081 4141,4086 4139,4092 4139,4098 4140,4105 4142,4110 4146,4115 4152,4119 4157,4124 4163,4126 4168,4127 4173,4127 4176,4127 4181,4125 4184,4123 4189,4117 4194,4112 4197,4104 4200,4095 4203,4086 4204,4076 4205,4067 4206,4057 "/>
   <polygon class="fil3 str0" points="4142,4019 4142,4019 4065,4087 4040,4076 4125,4001 "/>
   <path class="fil3 str0" d="M4201 4239l0 0 6 7 3 8 1 4 0 5 -1 3 -1 4 -3 7 -5 8 -6 6 -8 7 -9 7 -12 4 -13 3 -15 3 -17 1 -19 -1 -20 -3 -22 -3 11 -9 12 2 13 2 13 1 12 -1 18 -2 14 -3 7 -3 6 -2 6 -4 5 -3 5 -4 3 -5 2 -4 2 -5 1 -5 0 -5 -1 -4 -3 -4 -2 -3 -3 -2 -4 -1 -3 -1 -3 1 -3 1 -3 1 -3 3 -5 4 -3 4 -2 5 -2 5 -24 1 4 -11 4 -8 6 -8 6 -6 7 -4 8 -3 7 -2 9 0 8 2 7 2 5 3 4 5zm-219 -29l0 0 -10 4 -10 2 -9 3 -10 0 -7 -1 -8 -4 -7 -3 -5 -6 -3 -5 -3 -6 0 -5 1 -7 2 -5 2 -6 3 -3 5 -4 6 -4 7 -2 9 0 8 1 8 2 7 3 5 3 5 4 33 43 46 -33 12 16 -45 33 11 14 2 3 0 4 -1 2 -2 2 -2 2 -4 0 -4 0 -4 0 -27 -6 -5 -3 -6 -4 -1 -3 0 -2 1 -4 3 -3 9 -7 -12 -15zm-7 -8l0 0 -19 -25 -4 -4 -3 -2 -3 1 -4 3 -3 1 -1 2 -2 1 -1 2 -1 2 0 3 2 5 5 7 4 3 3 3 4 1 6 2 4 0 6 -2 4 -1 3 -2z"/>
   <polygon class="fil3 str0" points="4060,4091 4060,4091 4026,4118 4140,4245 4114,4246 4012,4129 3996,4141 3973,4129 4037,4079 "/>
   <polygon class="fil3 str0" points="3845,4235 3845,4235 3807,4256 3892,4402 3866,4397 3789,4265 3773,4274 3752,4257 3825,4219 "/>
   <polygon class="fil3 str0" points="3837,4326 3837,4326 3782,4351 3790,4366 3792,4371 3792,4375 3792,4377 3790,4379 3785,4380 3778,4377 3755,4366 3751,4365 3748,4363 3746,4361 3744,4359 3743,4356 3743,4354 3743,4352 3744,4350 3747,4347 3753,4343 3828,4309 "/>
   <polygon class="fil3 str0" points="3777,4270 3777,4270 3698,4308 3678,4290 3767,4250 "/>
   <polygon class="fil3 str0" points="3710,4302 3710,4302 3668,4320 3739,4472 3715,4466 3650,4327 3633,4334 3614,4317 3691,4285 "/>
   <polygon class="fil3 str0" points="3647,4331 3647,4331 3605,4347 3668,4502 3645,4494 3587,4353 3569,4360 3551,4340 3629,4312 "/>
   <path class="fil3 str0" d="M3613 4414l0 0 7 24 -4 7 -4 6 -6 6 -7 5 -5 5 -8 4 -6 3 -8 3 -12 3 -11 1 -11 0 -12 -2 -11 -3 -10 -6 -9 -7 -8 -7 11 -8 10 -7 8 -8 6 -10 -8 1 -9 0 -9 -1 -9 -3 -9 -4 -5 -3 -5 -6 -3 -5 -2 -8 -1 -8 1 -6 2 -7 4 -5 5 -6 8 -4 7 -4 10 -2 10 0 9 1 9 3 8 6 6 6 5 7 3 8 1 4 1 5 0 5 -1 5 -3 11 -6 13 -5 10 -6 8 -5 7 -7 6 3 4 5 4 4 2 5 2 4 1 5 0 5 0 5 -2 7 -2 8 -5 6 -4 9 -8 9 -8 7 -8 6 -9 6 -10zm-83 -28l0 0 -2 -5 -4 -6 -3 -4 -3 -3 -3 -4 -5 -1 -4 -1 -4 1 -4 2 -3 3 -4 3 -2 3 -1 5 -1 5 0 6 2 5 1 3 4 3 4 3 6 3 5 2 6 3 5 1 7 1 2 -8 1 -7 1 -6 -1 -7z"/>
   <polygon class="fil3 str0" points="3504,4468 3504,4468 3499,4471 3493,4473 3485,4477 3475,4479 3468,4480 3462,4480 3455,4479 3450,4478 3443,4477 3437,4474 3433,4472 3429,4469 3427,4473 3426,4478 3424,4481 3422,4485 3416,4490 3410,4494 3489,4546 3479,4555 3403,4504 3391,4495 3381,4488 3376,4481 3372,4476 3372,4473 3372,4471 3373,4468 3376,4465 3378,4461 3382,4460 3387,4460 3391,4460 3397,4462 3402,4466 3403,4467 3405,4467 3407,4466 3408,4463 3409,4461 3409,4458 3409,4455 3408,4449 3397,4402 3341,4413 3325,4392 3464,4364 3469,4387 3416,4397 3429,4449 3429,4452 3432,4456 3434,4459 3437,4461 3442,4462 3450,4463 3459,4462 3469,4459 3480,4455 3487,4451 3498,4445 "/>
   <polygon class="fil3 str0" points="3297,4332 3297,4332 3284,4351 3264,4338 3279,4319 "/>
   <polygon class="fil3 str0" points="3335,4412 3335,4412 3290,4419 3321,4583 3298,4571 3271,4423 3252,4425 3239,4404 3321,4390 "/>
   <polygon class="fil3 str0" points="3290,4511 3290,4511 3284,4513 3278,4515 3269,4516 3259,4517 3252,4517 3246,4517 3240,4516 3233,4514 3228,4512 3223,4509 3219,4505 3215,4502 3212,4506 3211,4511 3208,4514 3206,4517 3200,4521 3193,4525 3263,4587 3252,4595 3185,4534 3174,4524 3165,4514 3161,4508 3158,4501 3158,4499 3160,4497 3161,4493 3163,4491 3166,4488 3171,4487 3175,4488 3179,4489 3184,4491 3189,4495 3190,4497 3192,4497 3194,4495 3195,4494 3196,4492 3197,4489 3197,4484 3197,4480 3194,4431 3136,4435 3124,4412 3265,4403 3268,4426 3214,4429 3218,4483 3218,4487 3220,4490 3222,4493 3226,4495 3229,4498 3237,4500 3247,4500 3257,4498 3268,4495 3275,4492 3287,4488 "/>
   <polygon class="fil3 str0" points="3002,4407 3002,4407 2991,4406 2991,4395 2989,4385 2985,4376 2981,4368 2979,4363 2975,4360 2972,4358 2969,4354 2960,4351 2950,4350 2946,4350 2941,4352 2937,4354 2934,4358 2930,4362 2928,4365 2927,4370 2926,4374 2925,4380 2924,4383 2921,4385 2918,4386 2915,4385 2913,4384 2911,4382 2910,4379 2910,4373 2910,4369 2911,4361 2914,4354 2917,4348 2922,4342 2929,4337 2936,4333 2943,4331 2951,4331 2957,4332 2962,4333 2967,4336 2972,4338 2977,4341 2981,4345 2984,4350 2989,4355 2995,4368 3000,4380 3002,4393 "/>
   <polygon class="fil3 str0" points="3046,4435 3046,4435 3001,4433 2992,4599 2973,4583 2981,4431 2962,4430 2953,4407 3037,4411 "/>
   <polygon class="fil3 str0" points="2949,4527 2949,4527 2948,4532 2946,4537 2943,4543 2940,4549 2936,4555 2931,4560 2927,4566 2921,4570 2909,4551 2919,4538 2927,4528 2930,4523 2932,4519 2934,4514 2935,4510 2935,4506 2934,4502 2932,4499 2931,4494 2928,4491 2926,4489 2922,4488 2919,4487 2913,4487 2906,4488 2898,4491 2892,4495 2884,4501 2878,4506 2873,4513 2868,4520 2871,4491 2883,4480 2893,4472 2898,4470 2905,4468 2910,4467 2916,4467 2920,4468 2924,4469 2927,4471 2930,4473 2936,4480 2941,4490 2946,4500 2948,4509 2949,4519 "/>
   <polygon class="fil3 str0" points="2980,4434 2980,4434 2910,4427 2913,4403 2973,4409 "/>
   <polygon class="fil3 str0" points="2924,4429 2924,4429 2879,4424 2855,4588 2838,4570 2860,4420 2841,4418 2835,4394 2918,4405 "/>
   <polygon class="fil3 str0" points="2848,4523 2848,4523 2836,4526 2825,4527 2812,4528 2799,4526 2790,4524 2784,4520 2777,4514 2773,4506 2769,4499 2767,4490 2767,4481 2768,4472 2770,4465 2774,4458 2777,4452 2782,4447 2789,4444 2796,4441 2803,4440 2812,4441 2822,4444 2830,4447 2838,4451 2844,4457 2848,4461 2851,4467 2854,4472 2856,4479 2854,4490 2843,4478 2834,4469 2830,4466 2825,4463 2821,4462 2817,4461 2811,4460 2806,4460 2800,4462 2795,4465 2789,4468 2786,4471 2784,4476 2781,4481 2780,4488 2780,4492 2781,4498 2784,4501 2787,4504 2790,4508 2795,4510 2800,4511 2807,4512 2813,4512 2820,4511 2827,4510 2833,4508 2840,4505 2846,4502 2853,4498 "/>
   <polygon class="fil3 str0" points="2852,4420 2852,4420 2760,4404 2756,4379 2857,4397 "/>
   <polygon class="fil3 str0" points="2778,4408 2778,4408 2735,4397 2692,4559 2678,4540 2716,4393 2698,4388 2694,4363 2776,4383 "/>
   <polygon class="fil3 str0" points="2707,4395 2707,4395 2683,4387 2656,4471 2653,4478 2650,4482 2648,4483 2647,4484 2645,4484 2642,4484 2640,4483 2638,4481 2636,4478 2634,4474 2621,4447 2619,4441 2619,4436 2621,4434 2624,4433 2627,4433 2633,4434 2646,4438 2663,4382 2614,4368 2612,4342 2715,4372 "/>
   <polygon class="fil3 str0" points="2687,4341 2687,4341 2679,4332 2672,4325 2666,4317 2659,4310 2651,4305 2645,4300 2638,4297 2630,4295 2621,4293 2614,4293 2606,4293 2599,4295 2594,4298 2590,4301 2585,4306 2583,4311 2582,4317 2581,4321 2581,4326 2582,4333 2570,4329 2569,4322 2567,4316 2569,4309 2570,4304 2573,4296 2577,4289 2583,4284 2591,4280 2598,4277 2607,4276 2617,4276 2627,4278 2636,4282 2645,4286 2653,4293 2662,4300 2669,4307 2676,4315 2682,4323 2689,4333 "/>
   <polygon class="fil3 str0" points="2618,4368 2618,4368 2575,4353 2518,4511 2505,4490 2556,4348 2539,4341 2538,4316 2617,4342 "/>
   <polygon class="fil3 str0" points="2507,4306 2507,4306 2499,4302 2496,4291 2493,4280 2488,4270 2485,4262 2479,4252 2475,4244 2470,4239 2465,4236 2446,4232 2443,4203 2445,4203 2447,4203 2453,4203 2457,4203 2462,4204 2466,4208 2469,4211 2474,4215 2479,4224 2484,4233 2487,4243 2490,4252 2493,4261 2495,4267 2497,4273 2499,4282 2502,4293 "/>
   <polygon class="fil3 str0" points="2550,4349 2550,4349 2508,4332 2440,4485 2427,4465 2490,4325 2473,4318 2474,4293 2551,4323 "/>
   <polygon class="fil3 str0" points="2494,4326 2494,4326 2453,4307 2376,4456 2366,4435 2435,4298 2418,4290 2421,4265 2496,4300 "/>
   <polygon class="fil3 str0" points="2372,4425 2372,4425 2365,4426 2358,4427 2350,4426 2344,4426 2330,4423 2318,4418 2308,4412 2300,4405 2292,4396 2286,4387 2282,4377 2280,4369 2280,4365 2280,4361 2281,4358 2282,4354 2287,4349 2294,4343 2303,4339 2313,4336 2311,4330 2308,4325 2307,4319 2306,4313 2306,4308 2307,4304 2308,4299 2311,4295 2314,4290 2316,4287 2319,4285 2323,4283 2327,4282 2330,4280 2334,4282 2337,4283 2377,4302 2390,4279 2302,4235 2302,4209 2437,4277 2425,4298 2414,4293 2393,4329 2392,4331 2390,4332 2388,4332 2386,4332 2356,4317 2349,4315 2343,4312 2337,4310 2332,4310 2326,4310 2322,4310 2319,4312 2317,4315 2316,4316 2316,4318 2317,4320 2318,4323 2323,4329 2330,4334 2335,4336 2341,4337 2348,4338 2352,4340 2356,4342 2359,4344 2361,4348 2364,4352 2364,4356 2364,4360 2364,4364 2361,4368 2359,4371 2355,4372 2350,4372 2344,4370 2341,4369 2338,4366 2334,4363 2329,4361 2325,4359 2319,4358 2315,4356 2311,4358 2306,4359 2302,4360 2298,4363 2296,4366 2295,4369 2294,4370 2294,4372 2294,4375 2295,4377 2297,4381 2303,4385 2312,4391 2319,4394 2328,4397 2337,4399 2347,4401 2357,4402 2367,4403 2377,4402 2386,4401 "/>
   <polygon class="fil3 str0" points="2285,4197 2285,4197 2276,4191 2274,4182 2272,4173 2270,4165 2266,4158 2263,4153 2260,4147 2255,4143 2251,4140 2237,4133 2235,4112 2235,4110 2236,4108 2238,4107 2240,4106 2243,4106 2247,4106 2250,4107 2253,4108 2257,4111 2259,4113 2263,4118 2268,4125 2272,4133 2275,4141 2280,4157 2283,4173 2286,4164 2291,4154 2292,4146 2293,4138 2294,4132 2294,4124 2293,4115 2290,4107 2289,4104 2286,4102 2283,4098 2280,4097 2276,4095 2273,4095 2283,4070 2285,4068 2287,4065 2292,4065 2295,4067 2301,4071 2305,4078 2306,4082 2308,4086 2308,4091 2309,4097 2309,4106 2308,4116 2306,4128 2303,4143 2300,4158 2295,4172 2291,4186 "/>
   <polygon class="fil3 str0" points="2316,4246 2316,4246 2280,4222 2182,4360 2174,4338 2263,4212 2248,4202 2253,4177 2323,4222 "/>
   <polygon class="fil3 str0" points="2258,4208 2258,4208 2220,4184 2122,4322 2115,4299 2205,4173 2188,4164 2195,4139 2264,4183 "/>
   <polygon class="fil3 str0" points="2104,4230 2104,4230 2102,4223 2100,4216 2100,4209 2100,4201 2101,4193 2103,4187 2106,4180 2110,4175 2142,4133 2117,4115 2123,4090 2207,4147 2192,4167 2158,4144 2119,4196 2117,4200 2114,4203 2114,4209 2113,4213 2114,4219 2115,4223 2118,4226 2121,4229 2126,4231 2136,4233 2149,4233 2160,4234 2145,4252 2058,4245 2055,4226 "/>
   <polygon class="fil3 str0" points="2064,4073 2064,4073 2032,4042 1908,4160 1905,4136 2018,4029 2004,4017 2015,3994 2075,4050 "/>
   <polygon class="fil3 str0" points="1962,4074 1962,4074 1943,4090 1938,4090 1931,4089 1927,4087 1921,4085 1916,4083 1911,4080 1907,4076 1903,4072 1895,4062 1889,4052 1886,4041 1885,4030 1885,4024 1886,4018 1887,4011 1889,4007 1893,4001 1896,3996 1900,3992 1905,3987 1918,3994 1931,4000 1939,4001 1945,4001 1950,3999 1956,3996 1961,3990 1964,3986 1965,3981 1965,3975 1926,3933 1938,3910 2027,4004 2008,4020 1977,3987 1974,3998 1971,4009 1969,4014 1965,4018 1963,4021 1960,4024 1957,4026 1951,4026 1946,4026 1937,4026 1929,4025 1921,4022 1914,4020 1906,4017 1902,4021 1899,4025 1897,4029 1896,4033 1896,4038 1897,4042 1899,4046 1903,4050 1907,4054 1913,4059 1919,4062 1926,4065 1935,4069 1943,4071 1953,4073 "/>
   <polygon class="fil3 str0" points="1917,3883 1917,3883 1910,3875 1918,3868 1925,3859 1930,3852 1934,3843 1935,3837 1935,3833 1935,3829 1935,3825 1934,3821 1931,3816 1929,3813 1926,3809 1922,3806 1918,3804 1914,3803 1908,3802 1904,3803 1898,3804 1894,3806 1891,3809 1886,3812 1882,3813 1878,3813 1876,3811 1874,3809 1874,3805 1874,3803 1876,3801 1881,3796 1884,3794 1891,3790 1897,3786 1905,3784 1914,3784 1921,3785 1928,3788 1936,3791 1941,3797 1945,3801 1947,3805 1949,3811 1950,3815 1950,3821 1950,3826 1949,3833 1948,3839 1943,3852 1937,3864 1928,3874 "/>
   <polygon class="fil3 str0" points="1931,3943 1931,3943 1904,3909 1764,4009 1765,3985 1892,3893 1881,3879 1895,3858 1946,3921 "/>
   <polygon class="fil3 str0" points="1885,3892 1885,3892 1861,3857 1715,3950 1717,3925 1850,3842 1839,3826 1854,3805 1902,3871 "/>
   <polygon class="fil3 str0" points="1801,3872 1801,3872 1771,3827 1768,3823 1765,3820 1760,3817 1756,3815 1752,3814 1747,3814 1743,3815 1737,3817 1728,3824 1720,3832 1711,3840 1703,3852 1698,3860 1692,3870 1688,3882 1683,3895 1676,3883 1681,3871 1687,3860 1692,3848 1698,3836 1705,3824 1713,3814 1722,3806 1730,3800 1738,3796 1746,3794 1754,3793 1763,3795 1769,3797 1776,3802 1782,3807 1788,3814 1819,3861 "/>
   <polygon class="fil3 str0" points="1838,3831 1838,3831 1780,3743 1796,3724 1859,3818 "/>
   <polygon class="fil3 str0" points="1785,3753 1785,3753 1757,3706 1709,3731 1700,3736 1692,3738 1685,3738 1678,3738 1673,3737 1668,3735 1663,3732 1658,3728 1628,3815 1616,3807 1646,3725 1652,3710 1658,3699 1661,3695 1663,3692 1667,3691 1670,3689 1674,3688 1679,3689 1682,3691 1685,3694 1687,3697 1687,3702 1687,3707 1684,3713 1684,3715 1687,3716 1689,3717 1693,3717 1698,3715 1702,3713 1747,3689 1721,3643 1737,3623 1802,3734 "/>
   <polygon class="fil3 str0" points="1733,3665 1733,3665 1715,3625 1553,3691 1560,3667 1707,3609 1700,3591 1719,3575 1752,3648 "/>
   <polygon class="fil3 str0" points="1701,3598 1701,3598 1683,3558 1521,3623 1529,3600 1676,3542 1668,3525 1688,3508 1721,3580 "/>
   <path class="fil3 str0" d="M1606 3491l0 0 -1 -10 0 -10 1 -9 3 -7 5 -8 4 -6 7 -4 6 -3 7 -1 6 0 6 1 6 3 5 3 5 4 3 4 2 5 1 7 0 8 -2 6 -4 8 -5 7 -4 4 -6 5 -5 2 -53 16 17 52 -19 6 -18 -52 -19 5 -3 1 -3 0 -3 -2 -2 -3 0 -2 0 -4 1 -4 3 -3 14 -21 4 -6 7 -2 3 -1 3 1 3 2 2 5 3 10 20 -7zm10 -2l31 -10 5 -2 3 -3 1 -3 -1 -4 -2 -2 -1 -3 -1 -2 -1 -2 -2 -1 -2 0 -7 0 -8 2 -4 1 -4 3 -4 4 -2 4 -2 5 0 4 0 4 1 5z"/>
   <path class="fil3" d="M799 4086l-19 -36 188 -99 18 36 -187 99zm79 137l0 0 -23 -40 106 -104 -123 74 -19 -32 182 -110 23 39 -106 103 1 1 123 -74 19 33 -183 110zm182 71l0 0 -22 13 -20 11 -8 4 -9 4 -8 2 -7 2 -7 1 -7 0 -8 -1 -5 -2 -7 -2 -4 -5 -6 -4 -4 -7 -35 -53 176 -119 34 51 4 7 3 5 2 7 1 5 0 6 0 5 -1 6 -1 5 -3 6 -5 6 -5 8 -8 7 -18 15 -22 17zm-26 -35l0 0 16 -11 12 -8 9 -9 7 -6 2 -5 1 -7 -1 -5 -3 -7 -6 -9 -115 78 6 9 3 6 6 3 5 1 8 -1 8 -3 11 -6 14 -9 17 -11zm-21 159l0 0 -24 -33 171 -128 24 33 -171 128zm101 128l0 0 -25 -32 26 -31 -24 -31 -36 20 -26 -33 192 -100 33 41 -140 166zm29 -91l0 0 63 -70 0 -1 -82 47 19 24zm72 198l0 0 -31 -34 84 -122 -107 95 -26 -27 159 -143 30 34 -84 121 107 -95 25 29 -157 142zm115 111l0 0 -29 -27 145 -156 30 28 -146 155zm119 104l0 0 -35 -30 66 -133 -92 110 -29 -24 137 -163 34 28 -66 133 1 1 91 -110 30 25 -137 163zm159 43l0 0 -11 12 -10 9 -5 3 -6 3 -5 2 -6 1 -5 0 -6 0 -5 0 -6 -2 -5 -3 -7 -3 -5 -3 -6 -5 -10 -8 -8 -9 -2 -5 -2 -4 -1 -4 -1 -5 0 -5 1 -7 1 -6 2 -6 4 -8 4 -6 4 -8 7 -8 31 25 -9 11 -4 9 -2 6 2 4 2 5 3 3 3 2 4 1 4 0 5 -1 3 -2 3 -2 3 -2 4 -4 3 -6 3 -7 0 -7 -1 -6 -4 -12 -6 -11 -3 -10 -3 -9 -1 -8 -1 -5 1 -10 2 -10 4 -10 8 -10 10 -11 10 -10 5 -3 6 -4 5 -2 6 -1 4 -1 6 0 5 0 6 2 4 1 6 4 5 2 6 4 5 6 6 4 4 6 4 5 2 6 2 4 1 6 0 5 -1 10 -4 10 -6 11 -9 12 -30 -24 5 -6 2 -4 2 -6 1 -3 1 -4 -1 -4 -2 -3 -3 -3 -2 -2 -4 -2 -3 0 -3 0 -4 2 -3 2 -2 3 -3 3 -5 7 -2 6 -1 5 0 7 2 7 6 11 7 17 2 7 3 6 1 7 1 6 -1 7 -2 8 -4 9 -4 7 -7 9zm170 -16l0 0 -30 -21 -96 142 -33 -23 96 -143 -30 -19 24 -36 92 64 -23 36zm-36 175l0 0 -35 -22 113 -181 34 22 -112 181zm204 -81l0 0 -31 -17 -84 150 -35 -20 83 -150 -31 -18 20 -36 99 55 -21 36zm76 149l0 0 -10 17 -9 13 -6 5 -4 5 -5 3 -5 4 -5 2 -6 1 -5 1 -6 0 -5 -1 -7 -1 -7 -2 -5 -4 -7 -3 -6 -3 -5 -5 -4 -4 -4 -4 -3 -5 -2 -4 -1 -5 -1 -5 0 -7 1 -7 1 -7 5 -17 8 -19 62 -125 36 17 -65 135 -4 8 -2 7 -3 7 0 4 2 4 1 3 2 2 4 3 4 2 4 0 3 -2 4 -1 3 -3 3 -5 5 -7 3 -8 66 -133 36 17 -61 127zm165 -35l0 0 -32 -16 -69 157 -38 -16 70 -157 -32 -14 17 -39 102 46 -18 39zm53 201l0 0 -95 -38 76 -199 94 36 -15 39 -56 -23 -15 41 52 20 -15 38 -51 -21 -18 45 57 23 -14 39zm250 -38l0 0 -7 27 -8 22 -5 8 -4 8 -3 7 -5 5 -5 6 -6 4 -5 2 -7 3 -6 1 -8 0 -8 0 -9 -2 -9 -4 -7 -3 -7 -3 -5 -5 -5 -5 -3 -6 -3 -6 -1 -7 -2 -8 0 -8 0 -8 2 -10 4 -23 7 -27 8 -29 9 -23 5 -10 4 -7 4 -7 5 -5 4 -5 6 -4 5 -2 7 -2 6 -1 8 0 8 1 8 3 7 2 8 3 7 3 4 5 5 4 4 5 2 6 2 6 1 6 2 9 -2 9 0 11 -4 24 -8 30zm-39 -12l0 0 5 -21 3 -18 3 -13 1 -10 -1 -6 -1 -5 -4 -3 -4 -2 -6 -1 -4 2 -5 3 -4 6 -3 8 -5 14 -5 16 -6 21 -5 20 -5 17 -2 13 -1 10 1 7 2 6 4 3 4 2 5 2 4 -3 4 -3 4 -5 4 -9 6 -14 4 -16 7 -21zm182 -28l0 0 -58 -12 -9 41 54 12 -8 40 -54 -12 -19 87 -40 -8 45 -209 97 21 -8 40zm192 30l0 0 -35 -4 -19 170 -39 -5 17 -170 -35 -4 5 -42 111 12 -5 43zm112 180l0 0 -103 -8 17 -214 99 8 -3 41 -59 -5 -3 43 55 5 -2 39 -56 -4 -4 49 61 4 -2 42zm150 -79l0 0 -1 19 -4 19 -2 8 -2 6 -3 7 -4 6 -4 5 -4 4 -5 4 -5 3 -6 2 -5 1 -7 2 -7 0 -8 0 -8 -2 -8 -2 -5 -3 -7 -3 -4 -5 -5 -5 -3 -6 -2 -6 -3 -8 -2 -9 -1 -10 -2 -24 0 -29 2 -29 2 -24 3 -10 1 -9 3 -7 2 -7 5 -5 4 -6 4 -4 6 -4 6 -2 8 -2 8 -1 9 0 7 0 8 1 7 2 6 2 6 4 4 4 5 5 3 5 3 10 4 13 1 16 0 17 -40 -1 0 -17 -1 -13 -2 -5 -4 -5 -3 -3 -5 -1 -3 0 -3 1 -2 1 -2 2 -4 6 -2 9 -1 9 -1 12 -1 16 -1 21 0 21 0 18 1 13 1 10 2 7 4 4 4 3 5 0 5 0 3 -2 2 -4 4 -5 1 -7 1 -9 1 -12 1 -14 40 2zm146 76l0 0 -40 2 -5 -91 -33 1 5 91 -41 2 -10 -214 40 -2 4 80 33 -1 -3 -80 40 -2 10 214zm158 -13l0 0 -45 5 -50 -140 15 143 -37 5 -22 -213 44 -5 49 139 1 0 -14 -143 38 -3 21 212zm142 -126l0 0 4 28 1 23 0 10 -1 9 -1 8 -3 7 -2 6 -3 6 -5 5 -5 5 -6 3 -7 3 -8 2 -8 3 -9 0 -8 0 -8 -1 -7 -2 -6 -3 -6 -4 -4 -5 -5 -5 -3 -6 -3 -7 -4 -8 -3 -10 -4 -23 -5 -28 -3 -30 -1 -24 0 -11 1 -9 1 -7 2 -8 4 -6 3 -5 4 -5 6 -4 5 -3 7 -2 8 -3 8 -2 8 0 8 0 8 0 5 2 7 3 5 3 5 4 4 5 3 6 5 7 3 9 2 10 7 24 4 30zm-42 5l0 0 -3 -21 -2 -19 -3 -13 -4 -10 -3 -5 -3 -3 -5 -3 -4 0 -6 3 -3 3 -3 4 -1 8 0 9 0 14 2 17 2 22 3 20 4 17 3 13 2 9 3 7 5 4 4 2 6 0 4 -1 4 -3 2 -4 1 -7 1 -10 -1 -14 -1 -18 -4 -21zm187 70l0 0 -96 19 -43 -209 40 -9 34 170 56 -12 9 41zm111 -140l0 0 8 27 4 23 1 10 1 9 0 8 -1 6 -1 8 -2 6 -3 6 -5 5 -5 5 -7 3 -8 5 -7 2 -9 2 -8 1 -8 0 -7 0 -7 -2 -5 -3 -6 -3 -5 -6 -5 -5 -4 -7 -5 -8 -4 -9 -8 -22 -9 -26 -7 -29 -6 -24 -1 -10 0 -10 0 -8 1 -7 1 -6 4 -5 3 -6 4 -5 6 -5 5 -3 8 -3 8 -4 9 -1 6 -2 8 0 7 1 6 1 6 2 5 4 5 4 4 6 6 6 4 8 4 10 10 23 9 28zm-40 12l0 0 -6 -21 -6 -17 -5 -13 -5 -9 -4 -4 -4 -4 -5 -1 -4 0 -5 4 -3 3 -2 6 0 6 1 10 3 13 5 17 5 21 7 20 5 16 5 12 4 9 4 6 5 4 4 1 6 0 4 -2 4 -3 1 -6 1 -7 -2 -9 -3 -14 -4 -17 -6 -21zm213 41l0 0 -26 9 -8 -19 -1 11 -2 6 -5 7 -4 4 -6 5 -7 3 -7 2 -7 1 -6 0 -7 -1 -5 -2 -6 -3 -5 -4 -6 -5 -4 -6 -5 -6 -4 -8 -4 -9 -10 -21 -10 -25 -9 -28 -6 -23 -1 -10 -1 -9 0 -8 0 -8 1 -7 2 -5 4 -7 4 -4 5 -5 5 -4 7 -3 7 -4 7 -2 8 -2 6 0 6 0 6 0 6 2 6 2 4 3 8 7 7 10 7 12 7 15 -38 13 -3 -9 -4 -8 -3 -5 -3 -4 -3 -2 -4 -1 -4 0 -3 1 -4 1 -2 3 -1 2 -1 2 -1 8 1 9 1 7 3 11 5 14 5 17 9 22 7 18 5 13 6 9 4 5 4 4 5 1 5 -1 5 -2 3 -4 2 -4 0 -6 0 -6 -2 -9 -3 -10 -4 -13 -18 6 -12 -32 55 -20 37 109zm62 -254l0 0 9 137 32 77 -38 16 -32 -78 -90 -102 42 -18 48 68 -12 -84 41 -16zm255 46l0 0 5 13 3 13 2 5 0 6 0 6 -2 5 -3 8 -5 8 -7 7 -9 5 -59 32 -100 -188 59 -31 9 -5 9 -2 7 0 9 1 4 3 5 2 4 3 4 3 7 9 7 11 4 9 3 9 1 9 0 7 -1 7 -3 6 -2 4 -4 3 0 1 5 -2 7 0 5 0 7 2 8 5 7 6 7 9 7 11zm-83 -59l0 0 -2 -5 -4 -4 -3 -3 -3 -3 -3 -1 -4 -1 -4 1 -4 1 -12 7 24 44 11 -7 3 -1 2 -3 2 -3 1 -4 0 -4 0 -4 -2 -5 -2 -5zm43 75l0 0 -3 -6 -4 -5 -4 -4 -3 -2 -5 -2 -4 0 -5 1 -4 2 -12 6 27 52 13 -7 3 -3 3 -3 2 -4 1 -3 0 -6 -1 -4 -1 -6 -3 -6zm201 -38l0 0 -36 21 -45 -77 -30 17 47 78 -36 21 -108 -184 36 -21 40 69 29 -18 -41 -69 34 -20 110 183zm88 -143l0 0 9 16 6 16 2 6 2 7 1 7 0 5 -1 6 -2 5 -2 6 -3 4 -3 6 -5 4 -5 4 -6 4 -6 4 -7 4 -6 2 -5 1 -6 1 -5 0 -6 0 -4 -2 -6 -2 -5 -4 -6 -3 -5 -6 -11 -13 -11 -16 -76 -118 34 -22 80 125 6 8 4 6 5 4 4 3 2 1 5 0 3 0 3 -2 4 -2 2 -3 1 -4 0 -4 -1 -5 -2 -5 -4 -7 -4 -7 -80 -126 34 -22 76 118zm127 -80l0 0 7 13 5 11 2 6 1 6 0 5 0 6 -1 9 -4 8 -6 8 -8 7 -54 41 -128 -171 53 -40 9 -6 8 -3 9 -2 7 0 5 1 5 2 5 2 4 3 9 7 9 10 5 9 4 8 2 9 1 7 0 7 -1 6 -2 4 -4 4 1 1 5 -3 5 -1 7 0 5 1 9 3 9 5 8 8 9 9zm-91 -45l0 0 -4 -4 -4 -5 -3 -2 -4 -2 -4 0 -3 0 -3 1 -3 2 -11 8 29 40 10 -8 2 -2 3 -3 1 -4 1 -3 0 -4 -2 -5 -1 -4 -4 -5zm54 68l0 0 -4 -6 -5 -4 -4 -4 -4 -1 -5 -1 -4 0 -4 1 -4 4 -11 7 34 47 11 -8 4 -3 3 -5 1 -3 0 -5 0 -4 -2 -6 -2 -4 -4 -5zm194 -82l0 0 -31 28 -32 -25 -29 26 22 35 -32 27 -109 -188 38 -34 173 131zm-92 -23l0 0 -73 -61 51 81 22 -20zm198 -78l0 0 -32 31 -127 -77 102 103 -27 26 -150 -152 32 -32 125 78 -100 -102 27 -28 150 153zm99 -103l0 0 -69 74 -156 -147 69 -73 30 29 -40 43 31 30 37 -41 29 27 -38 40 36 35 42 -46 29 29zm47 -152l0 0 11 11 8 11 4 5 2 6 1 5 1 6 1 5 -1 6 -1 5 -1 6 -3 7 -3 5 -4 6 -4 5 -9 10 -9 7 -5 2 -5 2 -4 1 -5 1 -5 0 -6 -1 -6 -2 -7 -2 -7 -4 -6 -4 -8 -5 -7 -6 26 -31 11 9 9 4 5 1 5 0 4 -2 3 -3 3 -3 1 -4 0 -4 -1 -4 -2 -4 -2 -3 -2 -3 -3 -4 -7 -4 -7 -2 -5 -1 -8 0 -11 5 -12 5 -10 3 -9 2 -7 2 -6 0 -10 -1 -10 -3 -9 -5 -9 -7 -11 -11 -9 -10 -4 -6 -3 -5 -2 -6 -1 -5 0 -6 0 -5 0 -5 1 -5 2 -6 3 -5 4 -6 4 -4 5 -6 5 -5 6 -5 5 -3 4 -2 6 -1 5 -1 6 0 10 2 10 3 11 7 11 9 -24 29 -6 -4 -5 -3 -5 -3 -4 -1 -4 -1 -4 1 -3 3 -2 2 -3 3 -1 3 -1 4 1 2 1 3 1 3 4 4 3 4 6 4 5 2 7 2 5 -1 8 -1 12 -5 17 -7 6 -3 7 -2 6 -1 7 0 6 1 7 2 9 5 8 4 9 7zm-8 -253l0 0 159 147 -26 36 -135 -71 115 100 -25 38 -192 -95 22 -33 138 75 1 0 -120 -104 22 -31 140 73 0 -1 -121 -101 22 -33zm260 -6l0 0 -23 35 -38 -15 -19 33 29 27 -23 35 -155 -151 26 -43 203 79zm-96 3l0 0 -86 -39 0 2 71 61 15 -24zm168 -137l0 0 -21 38 -6 0 -8 -4 -13 -5 -15 -9 -10 -5 -9 -5 -8 -2 -4 -1 -4 0 -4 1 -3 3 -3 4 -7 13 76 43 -20 35 -185 -105 34 -60 5 -8 6 -7 7 -4 8 -3 5 0 5 -1 5 0 6 1 11 3 13 7 10 6 9 7 5 8 5 8 2 6 1 5 0 5 -2 4 1 0 4 -4 5 -3 4 -3 4 -1 9 1 10 3 11 4 12 7 18 9 11 6 7 1 4 2 5 0 4 0zm-152 -32l0 0 -7 -3 -4 -1 -6 -1 -4 0 -4 1 -4 2 -2 3 -4 5 -5 10 47 27 7 -12 2 -4 1 -4 -1 -4 -1 -4 -2 -4 -3 -4 -5 -3 -5 -4z"/>
  </g>
 </g>
</svg>
